<svg width="241" height="178" viewBox="0 0 241 178" fill="none" xmlns="http://www.w3.org/2000/svg">
<g filter="url(#filter0_f_12:1208)">
<path d="M254.608 186.373C343.808 104.373 270.108 27.2596 213.608 15.8733C-48.3918 -36.9267 -7.89184 134.873 45.1082 227.373C77.7748 247.873 165.408 268.373 254.608 186.373Z" stroke="url(#paint0_linear_12:1208)" stroke-width="4"/>
</g>
<g filter="url(#filter1_f_12:1208)">
<path d="M241.148 181.139C318.304 109.644 254.556 42.4093 205.684 32.4817C-20.9395 -13.5541 14.092 136.237 59.9358 216.887C88.1917 234.76 163.992 252.634 241.148 181.139Z" stroke="url(#paint1_linear_12:1208)" stroke-width="4"/>
</g>
<g filter="url(#filter2_f_12:1208)">
<path d="M245.195 181.207C313.436 117.921 257.053 58.4075 213.828 49.6199C13.3881 8.87051 44.3722 141.46 84.9193 212.849C109.911 228.67 176.953 244.492 245.195 181.207Z" stroke="url(#paint2_linear_12:1208)" stroke-width="4"/>
</g>
<defs>
<filter id="filter0_f_12:1208" x="-1.52588e-05" y="3.8147e-06" width="302.181" height="251.708" filterUnits="userSpaceOnUse" color-interpolation-filters="sRGB">
<feFlood flood-opacity="0" result="BackgroundImageFix"/>
<feBlend mode="normal" in="SourceGraphic" in2="BackgroundImageFix" result="shape"/>
<feGaussianBlur stdDeviation="2" result="effect1_foregroundBlur_12:1208"/>
</filter>
<filter id="filter1_f_12:1208" x="20.1081" y="17.8733" width="263" height="220.999" filterUnits="userSpaceOnUse" color-interpolation-filters="sRGB">
<feFlood flood-opacity="0" result="BackgroundImageFix"/>
<feBlend mode="normal" in="SourceGraphic" in2="BackgroundImageFix" result="shape"/>
<feGaussianBlur stdDeviation="2" result="effect1_foregroundBlur_12:1208"/>
</filter>
<filter id="filter2_f_12:1208" x="49" y="36" width="234" height="196.999" filterUnits="userSpaceOnUse" color-interpolation-filters="sRGB">
<feFlood flood-opacity="0" result="BackgroundImageFix"/>
<feBlend mode="normal" in="SourceGraphic" in2="BackgroundImageFix" result="shape"/>
<feGaussianBlur stdDeviation="2" result="effect1_foregroundBlur_12:1208"/>
</filter>
<linearGradient id="paint0_linear_12:1208" x1="151.091" y1="6" x2="151.091" y2="245.709" gradientUnits="userSpaceOnUse">
<stop stop-color="#09D843"/>
<stop offset="1" stop-color="#27E7DB" stop-opacity="0.2"/>
</linearGradient>
<linearGradient id="paint1_linear_12:1208" x1="151.608" y1="23.8733" x2="151.608" y2="232.873" gradientUnits="userSpaceOnUse">
<stop stop-color="#09D843"/>
<stop offset="1" stop-color="#27E7DB" stop-opacity="0.2"/>
</linearGradient>
<linearGradient id="paint2_linear_12:1208" x1="166" y1="42" x2="166" y2="227" gradientUnits="userSpaceOnUse">
<stop stop-color="#09D843"/>
<stop offset="1" stop-color="#27E7DB" stop-opacity="0.2"/>
</linearGradient>
</defs>
</svg>
